<?xml version="1.0" standalone="no"?>
<!DOCTYPE svg PUBLIC "-//W3C//DTD SVG December 1999//EN" "http://www.w3.org/Graphics/SVG/svg-19991203.dtd">
<svg width="16cm" height="14cm" viewBox="0 2 16 17">
  <rect style="fill: #ffffff" x="4" y="3" width="8" height="8"/>
  <rect style="stroke-width: 0.1; stroke: #000000" x="4" y="3" width="8" height="8"/>
  <text style="fill: #0000ff; text-align: center; font-size: 1.7" x="8" y="5">Program</text>
  <text style="fill: #000000; text-align: center; font-size: 1" x="8" y="7">Process Data</text>
  <text style="fill: #000000; text-align: center; font-size: 0.65" x="8" y="8">(Structure Program Internals,</text>
  <text style="fill: #000000; text-align: center; font-size: 0.65" x="8" y="8.65">Avoid Buffer Overflow,</text>
  <text style="fill: #000000; text-align: center; font-size: 0.65" x="8" y="9.3">Language-Specific Issues, &amp;</text>
  <text style="fill: #000000; text-align: center; font-size: 0.65" x="8" y="9.95">Special Topics)</text>
  <line style="stroke-width: 0.1; stroke: #000000" x1="1" y1="7" x2="4" y2="7"/>
  <polygon style="fill: #000000" points="3.2,7.4 4,7 3.2,6.6 "/>
  <text style="fill: #000000; text-align: center; font-size: 1" x="2" y="6">Input</text>
  <line style="stroke-width: 0.1; stroke: #000000" x1="12" y1="7" x2="15" y2="7"/>
  <polygon style="fill: #000000" points="14.2,7.4 15,7 14.2,6.6 "/>
  <text style="fill: #000000; text-align: center; font-size: 1" x="14" y="6">Output</text>
  <line style="stroke-width: 0.1; stroke: #000000" x1="8" y1="11" x2="8" y2="16"/>
  <polygon style="fill: #000000" points="8.4,11.8 8,11 7.6,11.8 "/>
  <polygon style="fill: #000000" points="7.6,15.2 8,16 8.4,15.2 "/>
  <text style="fill: #000000; text-align: left; font-size: 1" x="9" y="13.05">Call-out to</text>
  <text style="fill: #000000; text-align: left; font-size: 1" x="9" y="14.05">other</text>
  <text style="fill: #000000; text-align: left; font-size: 1" x="9" y="15.05">programs</text>
</svg>
