<?xml version="1.0" encoding="UTF-8" standalone="no"?>
<!DOCTYPE svg PUBLIC "-//W3C//DTD SVG 1.0//EN"
 "http://www.w3.org/TR/2001/REC-SVG-20010904/DTD/svg10.dtd" [
 <!ATTLIST svg xmlns:xlink CDATA #FIXED "http://www.w3.org/1999/xlink">
]>
<!-- Generated by Graphviz version 2.16.1 (Mon Jul  7 18:20:33 UTC 2008)
     For user: (dwheeler) David A. Wheeler -->
<!-- Title: ddc Pages: 1 -->
<svg width="389pt" height="792pt"
 viewBox="36.00 36.00 756.00 353.03" xmlns="http://www.w3.org/2000/svg" xmlns:xlink="http://www.w3.org/1999/xlink">
<g id="graph0" class="graph" transform="scale(0.445269 0.445269) rotate(-90) translate(-1693.85 788.85)">
<title>ddc</title>
<polygon style="fill:white;stroke:white;" points="-4,3.92917 -4,-708 1613,-708 1613,3.92917 -4,3.92917"/>
<!-- 1 -->
<g id="node1" class="node"><title>1</title>
<polygon style="fill:none;stroke:black;" points="292,-499.5 1.20737e-13,-499.5 3.57631e-14,-440.5 292,-440.5 292,-499.5"/>
<text text-anchor="middle" x="146" y="-482.9" style="font-family:Times New Roman;font-size:14.00;">{1} accurately_translates(A,B,C,D,E,F) &#45;&gt;</text>
<text text-anchor="middle" x="146" y="-465.9" style="font-family:Times New Roman;font-size:14.00;">exactly_correspond(compile(C,A,D,E,F),C,B,F)</text>
<text text-anchor="middle" x="146" y="-448.9" style="font-family:Times New Roman;font-size:14.00;"># label(define_exactly_correspond)</text>
</g>
<!-- 5 -->
<g id="node5" class="node"><title>5</title>
<text text-anchor="middle" x="170" y="-355.9" style="font-family:Times New Roman;font-size:14.00;">{5} &#45;accurately_translates(A,B,C,D,E,F) |</text>
<text text-anchor="middle" x="170" y="-338.9" style="font-family:Times New Roman;font-size:14.00;">exactly_correspond(compile(C,A,D,E,F),C,B,F)</text>
<text text-anchor="middle" x="170" y="-321.9" style="font-family:Times New Roman;font-size:14.00;"># label(define_exactly_correspond)</text>
</g>
<!-- 1&#45;&gt;5 -->
<g id="edge2" class="edge"><title>1&#45;&gt;5</title>
<path style="fill:none;stroke:black;" d="M152,-440C155,-423 159,-401 163,-383"/>
<polygon style="fill:black;stroke:black;" points="166.471,-383.492 165,-373 159.607,-382.119 166.471,-383.492"/>
</g>
<!-- 2 -->
<g id="node2" class="node"><title>2</title>
<polygon style="fill:none;stroke:black;" points="326,-703.5 78,-703.5 78,-644.5 326,-644.5 326,-703.5"/>
<text text-anchor="middle" x="202" y="-686.9" style="font-family:Times New Roman;font-size:14.00;">{2} (all A</text>
<text text-anchor="middle" x="202" y="-669.9" style="font-family:Times New Roman;font-size:14.00;">accurately_translates(cT,lsP,sP,A,e1,e2))</text>
<text text-anchor="middle" x="202" y="-652.9" style="font-family:Times New Roman;font-size:14.00;"># label(cT_compiles_sP)</text>
</g>
<!-- 6 -->
<g id="node7" class="node"><title>6</title>
<text text-anchor="middle" x="203" y="-590.9" style="font-family:Times New Roman;font-size:14.00;">{6}</text>
<text text-anchor="middle" x="203" y="-573.9" style="font-family:Times New Roman;font-size:14.00;">accurately_translates(cT,lsP,sP,A,e1,e2)</text>
<text text-anchor="middle" x="203" y="-556.9" style="font-family:Times New Roman;font-size:14.00;"># label(cT_compiles_sP)</text>
</g>
<!-- 2&#45;&gt;6 -->
<g id="edge4" class="edge"><title>2&#45;&gt;6</title>
<path style="fill:none;stroke:black;" d="M202,-644C202,-636 203,-627 203,-618"/>
<polygon style="fill:black;stroke:black;" points="206.5,-618 203,-608 199.5,-618 206.5,-618"/>
</g>
<!-- 3 -->
<g id="node3" class="node"><title>3</title>
<polygon style="fill:none;stroke:black;" points="718,-703.5 344,-703.5 344,-644.5 718,-644.5 718,-703.5"/>
<text text-anchor="middle" x="531" y="-686.9" style="font-family:Times New Roman;font-size:14.00;">{3} accurately_translates(A,lsP,sP,B,C,D) &#45;&gt;</text>
<text text-anchor="middle" x="531" y="-669.9" style="font-family:Times New Roman;font-size:14.00;">accurately_translates(compile(sP,A,B,C,D),lsA,sA,E,D,eArun)</text>
<text text-anchor="middle" x="531" y="-652.9" style="font-family:Times New Roman;font-size:14.00;"># label(sP_compiles_sA)</text>
</g>
<!-- 7 -->
<g id="node9" class="node"><title>7</title>
<text text-anchor="middle" x="530" y="-590.9" style="font-family:Times New Roman;font-size:14.00;">{7} &#45;accurately_translates(A,lsP,sP,B,C,D) |</text>
<text text-anchor="middle" x="530" y="-573.9" style="font-family:Times New Roman;font-size:14.00;">accurately_translates(compile(sP,A,B,C,D),lsA,sA,E,D,eArun)</text>
<text text-anchor="middle" x="530" y="-556.9" style="font-family:Times New Roman;font-size:14.00;"># label(sP_compiles_sA)</text>
</g>
<!-- 3&#45;&gt;7 -->
<g id="edge6" class="edge"><title>3&#45;&gt;7</title>
<path style="fill:none;stroke:black;" d="M531,-644C531,-636 530,-627 530,-618"/>
<polygon style="fill:black;stroke:black;" points="533.5,-618 530,-608 526.5,-618 533.5,-618"/>
</g>
<!-- 4 -->
<g id="node4" class="node"><title>4</title>
<polygon style="fill:none;stroke:black;" points="1450.2,-324.296 1450.2,-361.704 1362.22,-388.157 1237.78,-388.157 1149.8,-361.704 1149.8,-324.296 1237.78,-297.843 1362.22,-297.843 1450.2,-324.296"/>
<polygon style="fill:none;stroke:black;" points="1454.19,-321.318 1454.19,-364.682 1362.8,-392.157 1237.2,-392.157 1145.81,-364.682 1145.81,-321.318 1237.2,-293.843 1362.8,-293.843 1454.19,-321.318"/>
<text text-anchor="middle" x="1300" y="-355.9" style="font-family:Times New Roman;font-size:14.00;">{4} stage2 = cA &#45;&gt;</text>
<text text-anchor="middle" x="1300" y="-338.9" style="font-family:Times New Roman;font-size:14.00;">exactly_correspond(cA,sA,lsA,eArun) #</text>
<text text-anchor="middle" x="1300" y="-321.9" style="font-family:Times New Roman;font-size:14.00;">label(source_corresponds_to_executable)</text>
</g>
<!-- 12 -->
<g id="node17" class="node"><title>12</title>
<polygon style="fill:none;stroke:black;" points="1288.88,-199.685 1288.88,-226.315 1202.84,-245.145 1081.16,-245.145 995.121,-226.315 995.121,-199.685 1081.16,-180.855 1202.84,-180.855 1288.88,-199.685"/>
<text text-anchor="middle" x="1142" y="-217.4" style="font-family:Times New Roman;font-size:14.00;">{12} cA = stage2 #</text>
<text text-anchor="middle" x="1142" y="-200.4" style="font-family:Times New Roman;font-size:14.00;">label(source_corresponds_to_executable)</text>
</g>
<!-- 4&#45;&gt;12 -->
<g id="edge12" class="edge"><title>4&#45;&gt;12</title>
<path style="fill:none;stroke:black;" d="M1240,-294C1224,-280 1205,-265 1189,-251"/>
<polygon style="fill:black;stroke:black;" points="1191.1,-248.2 1181,-245 1186.9,-253.8 1191.1,-248.2"/>
</g>
<!-- 13 -->
<g id="node19" class="node"><title>13</title>
<polygon style="fill:none;stroke:black;" points="1609.23,-194.296 1609.23,-231.704 1520.64,-258.157 1395.36,-258.157 1306.77,-231.704 1306.77,-194.296 1395.36,-167.843 1520.64,-167.843 1609.23,-194.296"/>
<text text-anchor="middle" x="1458" y="-225.9" style="font-family:Times New Roman;font-size:14.00;">{13}</text>
<text text-anchor="middle" x="1458" y="-208.9" style="font-family:Times New Roman;font-size:14.00;">&#45;exactly_correspond(cA,sA,lsA,eArun) #</text>
<text text-anchor="middle" x="1458" y="-191.9" style="font-family:Times New Roman;font-size:14.00;">label(source_corresponds_to_executable)</text>
</g>
<!-- 4&#45;&gt;13 -->
<g id="edge14" class="edge"><title>4&#45;&gt;13</title>
<path style="fill:none;stroke:black;" d="M1360,-294C1371,-284 1384,-274 1395,-264"/>
<polygon style="fill:black;stroke:black;" points="1397.1,-266.8 1403,-258 1392.9,-261.2 1397.1,-266.8"/>
</g>
<!-- 17 -->
<g id="node30" class="node"><title>17</title>
<ellipse style="fill:none;stroke:black;" cx="481" cy="-213" rx="212.198" ry="29.6985"/>
<text text-anchor="middle" x="481" y="-217.4" style="font-family:Times New Roman;font-size:14.00;">{17}</text>
<text text-anchor="middle" x="481" y="-200.4" style="font-family:Times New Roman;font-size:14.00;">exactly_correspond(compile(sA,stage1,A,e2,eArun),sA,lsA,eArun)</text>
</g>
<!-- 5&#45;&gt;17 -->
<g id="edge28" class="edge"><title>5&#45;&gt;17</title>
<path style="fill:none;stroke:black;" d="M241,-313C290,-293 355,-266 405,-245"/>
<polygon style="fill:black;stroke:black;" points="406.283,-248.26 414,-241 403.44,-241.863 406.283,-248.26"/>
</g>
<!-- 15 -->
<g id="node24" class="node"><title>15</title>
<ellipse style="fill:none;stroke:black;" cx="515" cy="-470" rx="205.198" ry="29.6985"/>
<text text-anchor="middle" x="515" y="-474.4" style="font-family:Times New Roman;font-size:14.00;">{15}</text>
<text text-anchor="middle" x="515" y="-457.4" style="font-family:Times New Roman;font-size:14.00;">accurately_translates(compile(sP,cT,A,e1,e2),lsA,sA,B,e2,eArun)</text>
</g>
<!-- 6&#45;&gt;15 -->
<g id="edge22" class="edge"><title>6&#45;&gt;15</title>
<path style="fill:none;stroke:black;" d="M288,-548C332,-533 383,-516 427,-500"/>
<polygon style="fill:black;stroke:black;" points="428.427,-503.226 437,-497 426.416,-496.521 428.427,-503.226"/>
</g>
<!-- 7&#45;&gt;15 -->
<g id="edge20" class="edge"><title>7&#45;&gt;15</title>
<path style="fill:none;stroke:black;" d="M526,-548C524,-536 522,-523 520,-510"/>
<polygon style="fill:black;stroke:black;" points="523.478,-509.602 519,-500 516.512,-510.299 523.478,-509.602"/>
</g>
<!-- 8 -->
<g id="node11" class="node"><title>8</title>
<polygon style="fill:none;stroke:black;" points="944,-607.5 750,-607.5 750,-548.5 944,-548.5 944,-607.5"/>
<text text-anchor="middle" x="847" y="-590.9" style="font-family:Times New Roman;font-size:14.00;">{8} stage1 =</text>
<text text-anchor="middle" x="847" y="-573.9" style="font-family:Times New Roman;font-size:14.00;">compile(sP,cT,e1effects,e1,e2)</text>
<text text-anchor="middle" x="847" y="-556.9" style="font-family:Times New Roman;font-size:14.00;"># label(definition_stage1)</text>
</g>
<!-- 9 -->
<g id="node12" class="node"><title>9</title>
<ellipse style="fill:none;stroke:black;" cx="847" cy="-470" rx="109.219" ry="41.7193"/>
<text text-anchor="middle" x="847" y="-482.9" style="font-family:Times New Roman;font-size:14.00;">{9}</text>
<text text-anchor="middle" x="847" y="-465.9" style="font-family:Times New Roman;font-size:14.00;">compile(sP,cT,e1effects,e1,e2)</text>
<text text-anchor="middle" x="847" y="-448.9" style="font-family:Times New Roman;font-size:14.00;">= stage1</text>
</g>
<!-- 8&#45;&gt;9 -->
<g id="edge8" class="edge"><title>8&#45;&gt;9</title>
<path style="fill:none;stroke:black;" d="M847,-548C847,-540 847,-531 847,-522"/>
<polygon style="fill:black;stroke:black;" points="850.5,-522 847,-512 843.5,-522 850.5,-522"/>
</g>
<!-- 16 -->
<g id="node27" class="node"><title>16</title>
<ellipse style="fill:none;stroke:black;" cx="515" cy="-343" rx="157.198" ry="29.6985"/>
<text text-anchor="middle" x="515" y="-347.4" style="font-family:Times New Roman;font-size:14.00;">{16}</text>
<text text-anchor="middle" x="515" y="-330.4" style="font-family:Times New Roman;font-size:14.00;">accurately_translates(stage1,lsA,sA,A,e2,eArun)</text>
</g>
<!-- 9&#45;&gt;16 -->
<g id="edge24" class="edge"><title>9&#45;&gt;16</title>
<path style="fill:none;stroke:black;" d="M770,-441C717,-420 647,-393 594,-373"/>
<polygon style="fill:black;stroke:black;" points="594.584,-369.521 584,-370 592.573,-376.226 594.584,-369.521"/>
</g>
<!-- 10 -->
<g id="node14" class="node"><title>10</title>
<polygon style="fill:none;stroke:black;" points="965,-372.5 723,-372.5 723,-313.5 965,-313.5 965,-372.5"/>
<text text-anchor="middle" x="844" y="-355.9" style="font-family:Times New Roman;font-size:14.00;">{10} stage2 =</text>
<text text-anchor="middle" x="844" y="-338.9" style="font-family:Times New Roman;font-size:14.00;">compile(sA,stage1,e2effects,e2,eArun)</text>
<text text-anchor="middle" x="844" y="-321.9" style="font-family:Times New Roman;font-size:14.00;"># label(definition_stage2)</text>
</g>
<!-- 11 -->
<g id="node15" class="node"><title>11</title>
<ellipse style="fill:none;stroke:black;" cx="844" cy="-213" rx="133.218" ry="41.7193"/>
<text text-anchor="middle" x="844" y="-225.9" style="font-family:Times New Roman;font-size:14.00;">{11}</text>
<text text-anchor="middle" x="844" y="-208.9" style="font-family:Times New Roman;font-size:14.00;">compile(sA,stage1,e2effects,e2,eArun)</text>
<text text-anchor="middle" x="844" y="-191.9" style="font-family:Times New Roman;font-size:14.00;">= stage2</text>
</g>
<!-- 10&#45;&gt;11 -->
<g id="edge10" class="edge"><title>10&#45;&gt;11</title>
<path style="fill:none;stroke:black;" d="M844,-313C844,-299 844,-281 844,-265"/>
<polygon style="fill:black;stroke:black;" points="847.5,-265 844,-255 840.5,-265 847.5,-265"/>
</g>
<!-- 18 -->
<g id="node33" class="node"><title>18</title>
<ellipse style="fill:none;stroke:black;" cx="844" cy="-102" rx="138.198" ry="29.6985"/>
<text text-anchor="middle" x="844" y="-106.4" style="font-family:Times New Roman;font-size:14.00;">{18}</text>
<text text-anchor="middle" x="844" y="-89.4" style="font-family:Times New Roman;font-size:14.00;">exactly_correspond(stage2,sA,lsA,eArun)</text>
</g>
<!-- 11&#45;&gt;18 -->
<g id="edge32" class="edge"><title>11&#45;&gt;18</title>
<path style="fill:none;stroke:black;" d="M844,-171C844,-162 844,-152 844,-142"/>
<polygon style="fill:black;stroke:black;" points="847.5,-142 844,-132 840.5,-142 847.5,-142"/>
</g>
<!-- 14 -->
<g id="node21" class="node"><title>14</title>
<ellipse style="fill:none;stroke:black;" cx="1142" cy="-102" rx="140.198" ry="29.6985"/>
<text text-anchor="middle" x="1142" y="-106.4" style="font-family:Times New Roman;font-size:14.00;">{14}</text>
<text text-anchor="middle" x="1142" y="-89.4" style="font-family:Times New Roman;font-size:14.00;">&#45;exactly_correspond(stage2,sA,lsA,eArun)</text>
</g>
<!-- 12&#45;&gt;14 -->
<g id="edge16" class="edge"><title>12&#45;&gt;14</title>
<path style="fill:none;stroke:black;" d="M1142,-181C1142,-169 1142,-155 1142,-142"/>
<polygon style="fill:black;stroke:black;" points="1145.5,-142 1142,-132 1138.5,-142 1145.5,-142"/>
</g>
<!-- 13&#45;&gt;14 -->
<g id="edge18" class="edge"><title>13&#45;&gt;14</title>
<path style="fill:none;stroke:black;" d="M1359,-178C1315,-163 1265,-145 1224,-130"/>
<polygon style="fill:black;stroke:black;" points="1224.58,-126.521 1214,-127 1222.57,-133.226 1224.58,-126.521"/>
</g>
<!-- 19 -->
<g id="node36" class="node"><title>19</title>
<ellipse style="fill:none;stroke:black;" cx="993" cy="-18" rx="36.1752" ry="18"/>
<text text-anchor="middle" x="993" y="-13.9" style="font-family:Times New Roman;font-size:14.00;">{19} $F</text>
</g>
<!-- 14&#45;&gt;19 -->
<g id="edge38" class="edge"><title>14&#45;&gt;19</title>
<path style="fill:none;stroke:black;" d="M1093,-74C1071,-62 1045,-48 1026,-37"/>
<polygon style="fill:black;stroke:black;" points="1027.44,-33.7969 1017,-32 1024.04,-39.916 1027.44,-33.7969"/>
</g>
<!-- 15&#45;&gt;16 -->
<g id="edge26" class="edge"><title>15&#45;&gt;16</title>
<path style="fill:none;stroke:black;" d="M515,-440C515,-423 515,-401 515,-383"/>
<polygon style="fill:black;stroke:black;" points="518.5,-383 515,-373 511.5,-383 518.5,-383"/>
</g>
<!-- 16&#45;&gt;17 -->
<g id="edge30" class="edge"><title>16&#45;&gt;17</title>
<path style="fill:none;stroke:black;" d="M507,-314C502,-296 496,-272 491,-253"/>
<polygon style="fill:black;stroke:black;" points="494.393,-252.119 489,-243 487.529,-253.492 494.393,-252.119"/>
</g>
<!-- 17&#45;&gt;18 -->
<g id="edge34" class="edge"><title>17&#45;&gt;18</title>
<path style="fill:none;stroke:black;" d="M569,-186C625,-169 698,-147 755,-129"/>
<polygon style="fill:black;stroke:black;" points="756.427,-132.226 765,-126 754.416,-125.521 756.427,-132.226"/>
</g>
<!-- 18&#45;&gt;19 -->
<g id="edge36" class="edge"><title>18&#45;&gt;19</title>
<path style="fill:none;stroke:black;" d="M893,-74C915,-62 941,-48 960,-37"/>
<polygon style="fill:black;stroke:black;" points="961.958,-39.916 969,-32 958.559,-33.7969 961.958,-39.916"/>
</g>
</g>
</svg>
