<?xml version="1.0" encoding="UTF-8" standalone="no"?>
<!DOCTYPE svg PUBLIC "-//W3C//DTD SVG 1.0//EN"
 "http://www.w3.org/TR/2001/REC-SVG-20010904/DTD/svg10.dtd" [
 <!ATTLIST svg xmlns:xlink CDATA #FIXED "http://www.w3.org/1999/xlink">
]>
<!-- Generated by Graphviz version 2.12 (Thu Jul 12 21:12:55 UTC 2007)
     For user: (dwheeler) David A. Wheeler -->
<!-- Title: G Pages: 1 -->
<svg width="5.60in" height="7.99in"
 xmlns="http://www.w3.org/2000/svg" xmlns:xlink="http://www.w3.org/1999/xlink">
<g id="graph0" class="graph" transform="scale(0.609524 0.609524) rotate(-90) translate(-1256 880)">
<title>G</title>
<polygon style="fill:white;stroke:white;" points="-4,4 -4,-880 1256,-880 1256,4 -4,4"/>
<!-- 1 -->
<g id="node1" class="node"><title>1</title>
<ellipse style="fill:none;stroke:black;" cx="1168" cy="-856" rx="76.8003" ry="19.799"/>
<text text-anchor="middle" x="1168" y="-852" style="font-family:Nimbus Roman No9 L;font-weight:regular;font-size:11.34pt;">x * y = x * z &#45;&gt; y = z </text>
</g>
<!-- 8 -->
<g id="node9" class="node"><title>8</title>
<ellipse style="fill:none;stroke:black;" cx="1168" cy="-780" rx="72.799" ry="19.799"/>
<text text-anchor="middle" x="1168" y="-776" style="font-family:Nimbus Roman No9 L;font-weight:regular;font-size:11.34pt;">x * y != x * z | y = z</text>
</g>
<!-- 1&#45;&gt;8 -->
<g id="edge4" class="edge"><title>1&#45;&gt;8</title>
<path style="fill:none;stroke:black;" d="M1168,-836C1168,-828 1168,-819 1168,-810"/>
<polygon style="fill:black;stroke:black;" points="1171.5,-810 1168,-800 1164.5,-810 1171.5,-810"/>
</g>
<!-- 2 -->
<g id="node2" class="node"><title>2</title>
<ellipse style="fill:none;stroke:black;" cx="767" cy="-856" rx="116.8" ry="19.799"/>
<text text-anchor="middle" x="767" y="-852" style="font-family:Nimbus Roman No9 L;font-weight:regular;font-size:11.34pt;">divides(x,y) &lt;&#45;&gt; (exists z x * z = y) </text>
</g>
<!-- 9 -->
<g id="node11" class="node"><title>9</title>
<ellipse style="fill:none;stroke:black;" cx="884" cy="-628" rx="97.8" ry="19.799"/>
<text text-anchor="middle" x="884" y="-624" style="font-family:Nimbus Roman No9 L;font-weight:regular;font-size:11.34pt;">&#45;divides(x,y) | x * f1(x,y) = y</text>
</g>
<!-- 2&#45;&gt;9 -->
<g id="edge6" class="edge"><title>2&#45;&gt;9</title>
<path style="fill:none;stroke:black;" d="M791,-836C802,-826 814,-813 823,-800 851,-754 869,-693 878,-658"/>
<polygon style="fill:black;stroke:black;" points="881.471,-658.492 880,-648 874.607,-657.119 881.471,-658.492"/>
</g>
<!-- 10 -->
<g id="node13" class="node"><title>10</title>
<ellipse style="fill:none;stroke:black;" cx="733" cy="-780" rx="80.8002" ry="19.799"/>
<text text-anchor="middle" x="733" y="-776" style="font-family:Nimbus Roman No9 L;font-weight:regular;font-size:11.34pt;">divides(x,y) | x * z != y</text>
</g>
<!-- 2&#45;&gt;10 -->
<g id="edge8" class="edge"><title>2&#45;&gt;10</title>
<path style="fill:none;stroke:black;" d="M758,-836C754,-828 750,-818 746,-809"/>
<polygon style="fill:black;stroke:black;" points="749.26,-807.717 742,-800 742.863,-810.56 749.26,-807.717"/>
</g>
<!-- 3 -->
<g id="node3" class="node"><title>3</title>
<ellipse style="fill:none;stroke:black;" cx="478" cy="-856" rx="144.799" ry="19.799"/>
<text text-anchor="middle" x="478" y="-852" style="font-family:Nimbus Roman No9 L;font-weight:regular;font-size:11.34pt;">divides(2,x * y) &#45;&gt; divides(2,x) | divides(2,y) </text>
</g>
<!-- 11 -->
<g id="node15" class="node"><title>11</title>
<ellipse style="fill:none;stroke:black;" cx="478" cy="-780" rx="139.8" ry="19.799"/>
<text text-anchor="middle" x="478" y="-776" style="font-family:Nimbus Roman No9 L;font-weight:regular;font-size:11.34pt;">&#45;divides(2,x * y) | divides(2,x) | divides(2,y)</text>
</g>
<!-- 3&#45;&gt;11 -->
<g id="edge10" class="edge"><title>3&#45;&gt;11</title>
<path style="fill:none;stroke:black;" d="M478,-836C478,-828 478,-819 478,-810"/>
<polygon style="fill:black;stroke:black;" points="481.5,-810 478,-800 474.5,-810 481.5,-810"/>
</g>
<!-- 4 -->
<g id="node4" class="node"><title>4</title>
<ellipse style="fill:none;stroke:black;" cx="128" cy="-856" rx="127.8" ry="19.799"/>
<text text-anchor="middle" x="128" y="-852" style="font-family:Nimbus Roman No9 L;font-weight:regular;font-size:11.34pt;">x != 1 &#45;&gt; &#45;(divides(x,a) &amp; divides(x,b)) </text>
</g>
<!-- 14 -->
<g id="node20" class="node"><title>14</title>
<ellipse style="fill:none;stroke:black;" cx="128" cy="-780" rx="111.8" ry="19.799"/>
<text text-anchor="middle" x="128" y="-776" style="font-family:Nimbus Roman No9 L;font-weight:regular;font-size:11.34pt;">x = 1 | &#45;divides(x,a) | &#45;divides(x,b)</text>
</g>
<!-- 4&#45;&gt;14 -->
<g id="edge14" class="edge"><title>4&#45;&gt;14</title>
<path style="fill:none;stroke:black;" d="M128,-836C128,-828 128,-819 128,-810"/>
<polygon style="fill:black;stroke:black;" points="131.5,-810 128,-800 124.5,-810 131.5,-810"/>
</g>
<!-- 5 -->
<g id="node5" class="node"><title>5</title>
<ellipse style="fill:none;stroke:black;" cx="879" cy="-552" rx="81.799" ry="19.799"/>
<text text-anchor="middle" x="879" y="-548" style="font-family:Nimbus Roman No9 L;font-weight:regular;font-size:11.34pt;">x * (y * z) = (x * y) * z</text>
</g>
<!-- 6 -->
<g id="node6" class="node"><title>6</title>
<ellipse style="fill:none;stroke:black;" cx="924" cy="-476" rx="81.799" ry="19.799"/>
<text text-anchor="middle" x="924" y="-472" style="font-family:Nimbus Roman No9 L;font-weight:regular;font-size:11.34pt;">(x * y) * z = x * (y * z)</text>
</g>
<!-- 5&#45;&gt;6 -->
<g id="edge2" class="edge"><title>5&#45;&gt;6</title>
<path style="fill:none;stroke:black;" d="M891,-532C896,-524 902,-514 907,-505"/>
<polygon style="fill:black;stroke:black;" points="910.203,-506.441 912,-496 904.084,-503.042 910.203,-506.441"/>
</g>
<!-- 19 -->
<g id="node29" class="node"><title>19</title>
<ellipse style="fill:none;stroke:black;" cx="830" cy="-400" rx="81.799" ry="19.799"/>
<text text-anchor="middle" x="830" y="-396" style="font-family:Nimbus Roman No9 L;font-weight:regular;font-size:11.34pt;">(x * y) * z = y * (x * z)</text>
</g>
<!-- 6&#45;&gt;19 -->
<g id="edge24" class="edge"><title>6&#45;&gt;19</title>
<path style="fill:none;stroke:black;" d="M900,-457C889,-447 874,-436 862,-426"/>
<polygon style="fill:black;stroke:black;" points="863.831,-422.951 854,-419 859.221,-428.219 863.831,-422.951"/>
</g>
<!-- 20 -->
<g id="node32" class="node"><title>20</title>
<ellipse style="fill:none;stroke:black;" cx="865" cy="-324" rx="81.799" ry="19.799"/>
<text text-anchor="middle" x="865" y="-320" style="font-family:Nimbus Roman No9 L;font-weight:regular;font-size:11.34pt;">x * (y * z) = y * (x * z)</text>
</g>
<!-- 6&#45;&gt;20 -->
<g id="edge26" class="edge"><title>6&#45;&gt;20</title>
<path style="fill:none;stroke:black;" d="M927,-456C930,-436 931,-404 921,-380 916,-368 908,-358 899,-350"/>
<polygon style="fill:black;stroke:black;" points="901.546,-347.596 892,-343 896.596,-352.546 901.546,-347.596"/>
</g>
<!-- 31 -->
<g id="node64" class="node"><title>31</title>
<ellipse style="fill:none;stroke:black;" cx="1120" cy="-400" rx="81.8002" ry="19.799"/>
<text text-anchor="middle" x="1120" y="-396" style="font-family:Nimbus Roman No9 L;font-weight:regular;font-size:11.34pt;">a * x = 2 * (f1(2,a) * x)</text>
</g>
<!-- 6&#45;&gt;31 -->
<g id="edge70" class="edge"><title>6&#45;&gt;31</title>
<path style="fill:none;stroke:black;" d="M968,-459C998,-448 1036,-433 1067,-421"/>
<polygon style="fill:black;stroke:black;" points="1069.02,-423.964 1077,-417 1066.42,-417.464 1069.02,-423.964"/>
</g>
<!-- 7 -->
<g id="node8" class="node"><title>7</title>
<ellipse style="fill:none;stroke:black;" cx="773" cy="-476" rx="50.799" ry="19.799"/>
<text text-anchor="middle" x="773" y="-472" style="font-family:Nimbus Roman No9 L;font-weight:regular;font-size:11.34pt;">x * y = y * x</text>
</g>
<!-- 7&#45;&gt;19 -->
<g id="edge22" class="edge"><title>7&#45;&gt;19</title>
<path style="fill:none;stroke:black;" d="M788,-456C795,-448 802,-437 809,-428"/>
<polygon style="fill:black;stroke:black;" points="811.8,-430.1 815,-420 806.2,-425.9 811.8,-430.1"/>
</g>
<!-- 22 -->
<g id="node38" class="node"><title>22</title>
<ellipse style="fill:none;stroke:black;" cx="1168" cy="-704" rx="83.799" ry="19.799"/>
<text text-anchor="middle" x="1168" y="-700" style="font-family:Nimbus Roman No9 L;font-weight:regular;font-size:11.34pt;">a * a != 2 * x | b * b = x</text>
</g>
<!-- 8&#45;&gt;22 -->
<g id="edge36" class="edge"><title>8&#45;&gt;22</title>
<path style="fill:none;stroke:black;" d="M1168,-760C1168,-752 1168,-743 1168,-734"/>
<polygon style="fill:black;stroke:black;" points="1171.5,-734 1168,-724 1164.5,-734 1171.5,-734"/>
</g>
<!-- 24 -->
<g id="node44" class="node"><title>24</title>
<ellipse style="fill:none;stroke:black;" cx="1034" cy="-552" rx="54.8008" ry="19.799"/>
<text text-anchor="middle" x="1034" y="-548" style="font-family:Nimbus Roman No9 L;font-weight:regular;font-size:11.34pt;">2 * f1(2,a) = a</text>
</g>
<!-- 9&#45;&gt;24 -->
<g id="edge44" class="edge"><title>9&#45;&gt;24</title>
<path style="fill:none;stroke:black;" d="M921,-609C943,-598 970,-584 993,-573"/>
<polygon style="fill:black;stroke:black;" points="994.958,-575.916 1002,-568 991.559,-569.797 994.958,-575.916"/>
</g>
<!-- 21 -->
<g id="node35" class="node"><title>21</title>
<ellipse style="fill:none;stroke:black;" cx="647" cy="-704" rx="57.799" ry="19.799"/>
<text text-anchor="middle" x="647" y="-700" style="font-family:Nimbus Roman No9 L;font-weight:regular;font-size:11.34pt;">divides(2,a * a)</text>
</g>
<!-- 10&#45;&gt;21 -->
<g id="edge32" class="edge"><title>10&#45;&gt;21</title>
<path style="fill:none;stroke:black;" d="M711,-760C700,-751 687,-739 676,-730"/>
<polygon style="fill:black;stroke:black;" points="677.831,-726.951 668,-723 673.221,-732.219 677.831,-726.951"/>
</g>
<!-- 28 -->
<g id="node56" class="node"><title>28</title>
<ellipse style="fill:none;stroke:black;" cx="677" cy="-400" rx="52.8009" ry="19.799"/>
<text text-anchor="middle" x="677" y="-396" style="font-family:Nimbus Roman No9 L;font-weight:regular;font-size:11.34pt;">2 * x != b * b</text>
</g>
<!-- 10&#45;&gt;28 -->
<g id="edge58" class="edge"><title>10&#45;&gt;28</title>
<path style="fill:none;stroke:black;" d="M730,-760C720,-697 693,-505 682,-430"/>
<polygon style="fill:black;stroke:black;" points="685.393,-429.119 680,-420 678.529,-430.492 685.393,-429.119"/>
</g>
<!-- 18 -->
<g id="node27" class="node"><title>18</title>
<ellipse style="fill:none;stroke:black;" cx="470" cy="-704" rx="100.799" ry="19.799"/>
<text text-anchor="middle" x="470" y="-700" style="font-family:Nimbus Roman No9 L;font-weight:regular;font-size:11.34pt;">&#45;divides(2,x * x) | divides(2,x)</text>
</g>
<!-- 11&#45;&gt;18 -->
<g id="edge20" class="edge"><title>11&#45;&gt;18</title>
<path style="fill:none;stroke:black;" d="M476,-760C475,-752 474,-743 473,-734"/>
<polygon style="fill:black;stroke:black;" points="476.478,-733.602 472,-724 469.512,-734.299 476.478,-733.602"/>
</g>
<!-- 12 -->
<g id="node17" class="node"><title>12</title>
<ellipse style="fill:none;stroke:black;" cx="973" cy="-856" rx="65.799" ry="19.799"/>
<text text-anchor="middle" x="973" y="-852" style="font-family:Nimbus Roman No9 L;font-weight:regular;font-size:11.34pt;">a * a = 2 * (b * b)</text>
</g>
<!-- 13 -->
<g id="node18" class="node"><title>13</title>
<ellipse style="fill:none;stroke:black;" cx="973" cy="-780" rx="65.799" ry="19.799"/>
<text text-anchor="middle" x="973" y="-776" style="font-family:Nimbus Roman No9 L;font-weight:regular;font-size:11.34pt;">2 * (b * b) = a * a</text>
</g>
<!-- 12&#45;&gt;13 -->
<g id="edge12" class="edge"><title>12&#45;&gt;13</title>
<path style="fill:none;stroke:black;" d="M973,-836C973,-828 973,-819 973,-810"/>
<polygon style="fill:black;stroke:black;" points="976.5,-810 973,-800 969.5,-810 976.5,-810"/>
</g>
<!-- 13&#45;&gt;21 -->
<g id="edge30" class="edge"><title>13&#45;&gt;21</title>
<path style="fill:none;stroke:black;" d="M921,-768C861,-754 766,-732 705,-717"/>
<polygon style="fill:black;stroke:black;" points="705.492,-713.529 695,-715 704.119,-720.393 705.492,-713.529"/>
</g>
<!-- 13&#45;&gt;22 -->
<g id="edge34" class="edge"><title>13&#45;&gt;22</title>
<path style="fill:none;stroke:black;" d="M1014,-764C1043,-753 1083,-737 1114,-725"/>
<polygon style="fill:black;stroke:black;" points="1116.02,-727.964 1124,-721 1113.42,-721.464 1116.02,-727.964"/>
</g>
<!-- 15 -->
<g id="node22" class="node"><title>15</title>
<ellipse style="fill:none;stroke:black;" cx="128" cy="-704" rx="111.8" ry="19.799"/>
<text text-anchor="middle" x="128" y="-700" style="font-family:Nimbus Roman No9 L;font-weight:regular;font-size:11.34pt;">1 = x | &#45;divides(x,a) | &#45;divides(x,b)</text>
</g>
<!-- 14&#45;&gt;15 -->
<g id="edge16" class="edge"><title>14&#45;&gt;15</title>
<path style="fill:none;stroke:black;" d="M128,-760C128,-752 128,-743 128,-734"/>
<polygon style="fill:black;stroke:black;" points="131.5,-734 128,-724 124.5,-734 131.5,-734"/>
</g>
<!-- 25 -->
<g id="node47" class="node"><title>25</title>
<ellipse style="fill:none;stroke:black;" cx="289" cy="-628" rx="91.799" ry="19.799"/>
<text text-anchor="middle" x="289" y="-624" style="font-family:Nimbus Roman No9 L;font-weight:regular;font-size:11.34pt;">&#45;divides(2,a) | &#45;divides(2,b)</text>
</g>
<!-- 15&#45;&gt;25 -->
<g id="edge46" class="edge"><title>15&#45;&gt;25</title>
<path style="fill:none;stroke:black;" d="M168,-685C190,-674 218,-661 241,-650"/>
<polygon style="fill:black;stroke:black;" points="242.283,-653.26 250,-646 239.44,-646.863 242.283,-653.26"/>
</g>
<!-- 16 -->
<g id="node24" class="node"><title>16</title>
<ellipse style="fill:none;stroke:black;" cx="289" cy="-780" rx="30.8022" ry="19.799"/>
<text text-anchor="middle" x="289" y="-776" style="font-family:Nimbus Roman No9 L;font-weight:regular;font-size:11.34pt;">2 != 1</text>
</g>
<!-- 17 -->
<g id="node25" class="node"><title>17</title>
<ellipse style="fill:none;stroke:black;" cx="289" cy="-704" rx="30.8022" ry="19.799"/>
<text text-anchor="middle" x="289" y="-700" style="font-family:Nimbus Roman No9 L;font-weight:regular;font-size:11.34pt;">1 != 2</text>
</g>
<!-- 16&#45;&gt;17 -->
<g id="edge18" class="edge"><title>16&#45;&gt;17</title>
<path style="fill:none;stroke:black;" d="M289,-760C289,-752 289,-743 289,-734"/>
<polygon style="fill:black;stroke:black;" points="292.5,-734 289,-724 285.5,-734 292.5,-734"/>
</g>
<!-- 17&#45;&gt;25 -->
<g id="edge48" class="edge"><title>17&#45;&gt;25</title>
<path style="fill:none;stroke:black;" d="M289,-684C289,-676 289,-667 289,-658"/>
<polygon style="fill:black;stroke:black;" points="292.5,-658 289,-648 285.5,-658 292.5,-658"/>
</g>
<!-- 23 -->
<g id="node41" class="node"><title>23</title>
<ellipse style="fill:none;stroke:black;" cx="619" cy="-628" rx="46.8011" ry="19.799"/>
<text text-anchor="middle" x="619" y="-624" style="font-family:Nimbus Roman No9 L;font-weight:regular;font-size:11.34pt;">divides(2,a)</text>
</g>
<!-- 18&#45;&gt;23 -->
<g id="edge40" class="edge"><title>18&#45;&gt;23</title>
<path style="fill:none;stroke:black;" d="M507,-685C529,-674 557,-660 580,-649"/>
<polygon style="fill:black;stroke:black;" points="581.958,-651.916 589,-644 578.559,-645.797 581.958,-651.916"/>
</g>
<!-- 27 -->
<g id="node53" class="node"><title>27</title>
<ellipse style="fill:none;stroke:black;" cx="493" cy="-476" rx="60.8006" ry="19.799"/>
<text text-anchor="middle" x="493" y="-472" style="font-family:Nimbus Roman No9 L;font-weight:regular;font-size:11.34pt;">&#45;divides(2,b * b)</text>
</g>
<!-- 18&#45;&gt;27 -->
<g id="edge54" class="edge"><title>18&#45;&gt;27</title>
<path style="fill:none;stroke:black;" d="M472,-684C477,-644 486,-553 490,-506"/>
<polygon style="fill:black;stroke:black;" points="493.488,-506.299 491,-496 486.522,-505.602 493.488,-506.299"/>
</g>
<!-- 19&#45;&gt;20 -->
<g id="edge28" class="edge"><title>19&#45;&gt;20</title>
<path style="fill:none;stroke:black;" d="M839,-380C843,-372 847,-362 852,-353"/>
<polygon style="fill:black;stroke:black;" points="855.137,-354.56 856,-344 848.74,-351.717 855.137,-354.56"/>
</g>
<!-- 30 -->
<g id="node61" class="node"><title>30</title>
<ellipse style="fill:none;stroke:black;" cx="865" cy="-248" rx="68.8004" ry="19.799"/>
<text text-anchor="middle" x="865" y="-244" style="font-family:Nimbus Roman No9 L;font-weight:regular;font-size:11.34pt;">b * b != x * (2 * y)</text>
</g>
<!-- 20&#45;&gt;30 -->
<g id="edge64" class="edge"><title>20&#45;&gt;30</title>
<path style="fill:none;stroke:black;" d="M865,-304C865,-296 865,-287 865,-278"/>
<polygon style="fill:black;stroke:black;" points="868.5,-278 865,-268 861.5,-278 868.5,-278"/>
</g>
<!-- 21&#45;&gt;23 -->
<g id="edge38" class="edge"><title>21&#45;&gt;23</title>
<path style="fill:none;stroke:black;" d="M640,-684C637,-676 633,-666 630,-658"/>
<polygon style="fill:black;stroke:black;" points="632.964,-655.985 626,-648 626.464,-658.585 632.964,-655.985"/>
</g>
<!-- 34 -->
<g id="node72" class="node"><title>34</title>
<ellipse style="fill:none;stroke:black;" cx="1024" cy="-96" rx="67.799" ry="19.799"/>
<text text-anchor="middle" x="1024" y="-92" style="font-family:Nimbus Roman No9 L;font-weight:regular;font-size:11.34pt;">a * a != 2 * (x * a)</text>
</g>
<!-- 22&#45;&gt;34 -->
<g id="edge78" class="edge"><title>22&#45;&gt;34</title>
<path style="fill:none;stroke:black;" d="M1182,-684C1200,-656 1230,-602 1230,-552 1230,-552 1230,-552 1230,-248 1230,-175 1145,-133 1085,-112"/>
<polygon style="fill:black;stroke:black;" points="1085.58,-108.521 1075,-109 1083.57,-115.226 1085.58,-108.521"/>
</g>
<!-- 23&#45;&gt;24 -->
<g id="edge42" class="edge"><title>23&#45;&gt;24</title>
<path style="fill:none;stroke:black;" d="M665,-623C732,-615 862,-597 970,-572 975,-571 979,-570 983,-569"/>
<polygon style="fill:black;stroke:black;" points="984.427,-572.226 993,-566 982.416,-565.521 984.427,-572.226"/>
</g>
<!-- 26 -->
<g id="node50" class="node"><title>26</title>
<ellipse style="fill:none;stroke:black;" cx="415" cy="-552" rx="49.801" ry="19.799"/>
<text text-anchor="middle" x="415" y="-548" style="font-family:Nimbus Roman No9 L;font-weight:regular;font-size:11.34pt;">&#45;divides(2,b)</text>
</g>
<!-- 23&#45;&gt;26 -->
<g id="edge52" class="edge"><title>23&#45;&gt;26</title>
<path style="fill:none;stroke:black;" d="M583,-615C549,-602 498,-583 461,-570"/>
<polygon style="fill:black;stroke:black;" points="462.56,-566.863 452,-566 459.717,-573.26 462.56,-566.863"/>
</g>
<!-- 24&#45;&gt;31 -->
<g id="edge68" class="edge"><title>24&#45;&gt;31</title>
<path style="fill:none;stroke:black;" d="M1045,-532C1060,-506 1086,-459 1104,-429"/>
<polygon style="fill:black;stroke:black;" points="1107.2,-430.441 1109,-420 1101.08,-427.042 1107.2,-430.441"/>
</g>
<!-- 33 -->
<g id="node69" class="node"><title>33</title>
<ellipse style="fill:none;stroke:black;" cx="1010" cy="-172" rx="52.799" ry="19.799"/>
<text text-anchor="middle" x="1010" y="-168" style="font-family:Nimbus Roman No9 L;font-weight:regular;font-size:11.34pt;">b * b != x * a</text>
</g>
<!-- 24&#45;&gt;33 -->
<g id="edge74" class="edge"><title>24&#45;&gt;33</title>
<path style="fill:none;stroke:black;" d="M1033,-532C1029,-469 1016,-277 1012,-202"/>
<polygon style="fill:black;stroke:black;" points="1015.48,-201.602 1011,-192 1008.51,-202.299 1015.48,-201.602"/>
</g>
<!-- 25&#45;&gt;26 -->
<g id="edge50" class="edge"><title>25&#45;&gt;26</title>
<path style="fill:none;stroke:black;" d="M320,-609C338,-599 360,-586 378,-575"/>
<polygon style="fill:black;stroke:black;" points="380.621,-577.459 387,-569 376.738,-571.635 380.621,-577.459"/>
</g>
<!-- 26&#45;&gt;27 -->
<g id="edge56" class="edge"><title>26&#45;&gt;27</title>
<path style="fill:none;stroke:black;" d="M434,-533C444,-524 455,-513 466,-502"/>
<polygon style="fill:black;stroke:black;" points="468.404,-504.546 473,-495 463.454,-499.596 468.404,-504.546"/>
</g>
<!-- 27&#45;&gt;28 -->
<g id="edge60" class="edge"><title>27&#45;&gt;28</title>
<path style="fill:none;stroke:black;" d="M531,-460C560,-448 600,-432 632,-419"/>
<polygon style="fill:black;stroke:black;" points="633.283,-422.26 641,-415 630.44,-415.863 633.283,-422.26"/>
</g>
<!-- 29 -->
<g id="node59" class="node"><title>29</title>
<ellipse style="fill:none;stroke:black;" cx="694" cy="-324" rx="52.8009" ry="19.799"/>
<text text-anchor="middle" x="694" y="-320" style="font-family:Nimbus Roman No9 L;font-weight:regular;font-size:11.34pt;">b * b != 2 * x</text>
</g>
<!-- 28&#45;&gt;29 -->
<g id="edge62" class="edge"><title>28&#45;&gt;29</title>
<path style="fill:none;stroke:black;" d="M681,-380C683,-372 685,-363 687,-354"/>
<polygon style="fill:black;stroke:black;" points="690.479,-354.584 690,-344 683.774,-352.573 690.479,-354.584"/>
</g>
<!-- 29&#45;&gt;30 -->
<g id="edge66" class="edge"><title>29&#45;&gt;30</title>
<path style="fill:none;stroke:black;" d="M729,-309C755,-297 790,-282 818,-269"/>
<polygon style="fill:black;stroke:black;" points="819.283,-272.26 827,-265 816.44,-265.863 819.283,-272.26"/>
</g>
<!-- 30&#45;&gt;33 -->
<g id="edge76" class="edge"><title>30&#45;&gt;33</title>
<path style="fill:none;stroke:black;" d="M899,-230C920,-219 947,-205 970,-193"/>
<polygon style="fill:black;stroke:black;" points="971.958,-195.916 979,-188 968.559,-189.797 971.958,-195.916"/>
</g>
<!-- 32 -->
<g id="node67" class="node"><title>32</title>
<ellipse style="fill:none;stroke:black;" cx="1120" cy="-248" rx="81.8002" ry="19.799"/>
<text text-anchor="middle" x="1120" y="-244" style="font-family:Nimbus Roman No9 L;font-weight:regular;font-size:11.34pt;">2 * (f1(2,a) * x) = a * x</text>
</g>
<!-- 31&#45;&gt;32 -->
<g id="edge72" class="edge"><title>31&#45;&gt;32</title>
<path style="fill:none;stroke:black;" d="M1120,-380C1120,-353 1120,-308 1120,-278"/>
<polygon style="fill:black;stroke:black;" points="1123.5,-278 1120,-268 1116.5,-278 1123.5,-278"/>
</g>
<!-- 35 -->
<g id="node75" class="node"><title>35</title>
<ellipse style="fill:none;stroke:black;" cx="1072" cy="-20" rx="27" ry="19.799"/>
<text text-anchor="middle" x="1072" y="-16" style="font-family:Nimbus Roman No9 L;font-weight:regular;font-size:11.34pt;">$F</text>
</g>
<!-- 32&#45;&gt;35 -->
<g id="edge84" class="edge"><title>32&#45;&gt;35</title>
<path style="fill:none;stroke:black;" d="M1120,-228C1120,-195 1117,-129 1101,-76 1098,-66 1093,-56 1088,-47"/>
<polygon style="fill:black;stroke:black;" points="1090.92,-45.0418 1083,-38 1084.8,-48.4414 1090.92,-45.0418"/>
</g>
<!-- 33&#45;&gt;34 -->
<g id="edge80" class="edge"><title>33&#45;&gt;34</title>
<path style="fill:none;stroke:black;" d="M1014,-152C1015,-144 1017,-135 1018,-126"/>
<polygon style="fill:black;stroke:black;" points="1021.47,-126.492 1020,-116 1014.61,-125.119 1021.47,-126.492"/>
</g>
<!-- 34&#45;&gt;35 -->
<g id="edge82" class="edge"><title>34&#45;&gt;35</title>
<path style="fill:none;stroke:black;" d="M1037,-76C1042,-67 1049,-56 1056,-47"/>
<polygon style="fill:black;stroke:black;" points="1059.2,-48.4414 1061,-38 1053.08,-45.0418 1059.2,-48.4414"/>
</g>
</g>
</svg>
